<svg xmlns="http://www.w3.org/2000/svg" viewBox="0 0 512 512" width="512" height="512">
  <!-- Background Shield Box -->
  <rect width="512" height="512" rx="128" fill="#772f1a" />
  <rect x="8" y="8" width="496" height="496" rx="120" fill="none" stroke="#f2a65a" stroke-width="6" />

  <!-- Outer Geometric Aid Polygon -->
  <polygon points="256,64 432,160 432,352 256,448 80,352 80,160" fill="none" stroke="#f58549" stroke-width="10" stroke-linejoin="round" />

  <!-- Inner Amanat 'A' Emblem -->
  <path d="M256 128 L360 360 L296 360 L272 304 L240 304 L216 360 L152 360 Z M256 220 L246 256 L266 256 Z" fill="#ffffff" />

  <!-- Digital Verification Nodes -->
  <circle cx="256" cy="64" r="16" fill="#f58549" stroke="#ffffff" stroke-width="3" />
  <circle cx="432" cy="160" r="16" fill="#585123" stroke="#ffffff" stroke-width="3" />
  <circle cx="432" cy="352" r="16" fill="#f2a65a" stroke="#ffffff" stroke-width="3" />
  <circle cx="256" cy="448" r="16" fill="#f58549" stroke="#ffffff" stroke-width="3" />
  <circle cx="80" cy="352" r="16" fill="#585123" stroke="#ffffff" stroke-width="3" />
  <circle cx="80" cy="160" r="16" fill="#f2a65a" stroke="#ffffff" stroke-width="3" />
</svg>
